<?xml version="1.0" encoding="utf-8"?>
<!-- Generator: Adobe Illustrator 18.1.1, SVG Export Plug-In . SVG Version: 6.00 Build 0)  -->
<!DOCTYPE svg PUBLIC "-//W3C//DTD SVG 1.1//EN" "http://www.w3.org/Graphics/SVG/1.1/DTD/svg11.dtd">
<svg version="1.1" id="Layer_1" xmlns="http://www.w3.org/2000/svg" xmlns:xlink="http://www.w3.org/1999/xlink" x="0px" y="0px"
	 viewBox="0 0 500 500" enable-background="new 0 0 500 500" xml:space="preserve">
<g>
	<g>
		<g>
			<circle fill="#010101" cx="250" cy="250" r="246.1"/>
		</g>
	</g>
	<g>
		<g>
			<g>
				<path fill="#82A245" d="M420.1,255.4H412l3.2-3.5c0.6-0.6,1.4-1.6,1.7-2.2c0.2-0.4,0.6-1.1,0.6-1.8c0-0.4-0.2-0.8-0.4-1
					c-0.2-0.2-0.6-0.3-1-0.3c-0.5,0-0.8,0.2-1,0.4c-0.3,0.3-0.4,0.9-0.4,1.3h-2.4c0.1-0.9,0.4-2,1.1-2.6c0.5-0.5,1.4-1.1,2.9-1.1
					c1.5,0,2.4,0.6,2.7,1c0.6,0.6,1,1.4,1,2.5c0,0.9-0.3,1.6-0.8,2.3c-0.5,0.6-1,1.2-1.7,1.8l-1.1,1.1h3.6V255.4z"/>
			</g>
		</g>
		<g>
			<g>
				<path fill="#82A245" d="M431.9,254.6c-0.6,0.6-1.5,1.1-2.8,1.1c-1.3,0-2.2-0.5-2.8-1.1c-1-1-1.5-2.6-1.5-4.4
					c0-1.8,0.5-3.4,1.5-4.4c0.6-0.6,1.5-1.1,2.8-1.1c1.3,0,2.2,0.5,2.8,1.1c1,1,1.5,2.6,1.5,4.4
					C433.4,251.9,432.9,253.5,431.9,254.6z M428.1,247.1c-0.8,0.8-0.9,2.3-0.9,3c0,0.8,0.1,2.3,0.9,3c0.3,0.3,0.6,0.4,1,0.4
					c0.4,0,0.7-0.1,1-0.4c0.7-0.7,0.9-2.2,0.9-3c0-0.7-0.1-2.3-0.9-3c-0.3-0.3-0.6-0.4-1-0.4C428.7,246.7,428.4,246.8,428.1,247.1z"
					/>
			</g>
		</g>
		<g>
			<g>
				<path fill="#82A245" d="M439.7,246.9h-1.5v-2.1h4v10.6h-2.4V246.9z"/>
			</g>
		</g>
		<g>
			<g>
				<path fill="#82A245" d="M455.1,246.9h-3.6l-0.3,1.4c0.3,0,0.6-0.1,0.9-0.1c1.2,0,2.1,0.4,2.7,1c0.5,0.5,1,1.3,1,2.6
					c0,1.4-0.6,2.2-1.1,2.7c-1,1-2.1,1.1-3.2,1.1c-1,0-2.2-0.1-3.5-1.2l0.6-2.3c0.3,0.3,0.7,0.7,1,0.9c0.4,0.3,1,0.5,1.6,0.5
					c0.6,0,1.1-0.1,1.5-0.4c0.3-0.3,0.6-0.7,0.6-1.3c0-0.6-0.3-1-0.5-1.2c-0.1-0.1-0.6-0.6-1.8-0.6c-0.9,0-1.6,0.3-2.2,0.6l1.1-5.7
					h5.2V246.9z"/>
			</g>
		</g>
	</g>
	<g>
		<g>
			<path fill="#ECB71E" d="M338.7,358.1H160.4l-0.4-0.4c-33.4-27.4-51.7-65.6-51.7-107.7c0-77.9,63.4-141.3,141.3-141.3
				s141.3,63.4,141.3,141.3c0,42.1-18.4,80.3-51.7,107.7L338.7,358.1z M161.6,355h176c32.3-26.7,50.1-64,50.1-104.9
				c0-76.2-62-138.1-138.1-138.1s-138.1,62-138.1,138.1C111.4,291,129.2,328.2,161.6,355z"/>
		</g>
	</g>
	<g>
		<g>
			<g>
				<g>
					<path fill="#FFFFFF" d="M60.3,199.6l-3,14.4l10.5,2.2l3-13.9l3.7,0.8l-3,13.9l13.7,2.9l3-14.4l3.7,0.8L88,224.5l-35.2-7.5
						l3.9-18.3L60.3,199.6z"/>
				</g>
			</g>
			<g>
				<g>
					<path fill="#FFFFFF" d="M70.4,162.6c1.6-3.2,3.3-5.8,6.3-7c3.2-1.4,6.3-0.5,8.4,0.5c4.5,2.2,7.6,7.3,4,14.7l-1.6,3.1l14,6.9
						l-1.8,3.6l-32.3-16L70.4,162.6z M84.1,172.2l1.5-3c2.1-4.3,1.2-7.9-2.5-9.7c-5.1-2.5-8,2-9.1,4.3l-1.3,2.7L84.1,172.2z"/>
				</g>
			</g>
			<g>
				<g>
					<path fill="#FFFFFF" d="M144.4,89.3c-1.6-0.2-3.8-0.2-5.8,0.2c-2,0.5-4.1,1.4-5.8,2.7c-6.6,5.1-7.4,14.1-2.3,20.7
						c6,7.7,15.3,6.8,20.5,2.7c1.9-1.5,3.4-3.5,4.3-5.4c1-2.1,1.3-4,1.4-4.9l3,3.9c-1.4,4.7-4.3,7.8-6.4,9.4
						c-8.5,6.5-19.7,5-26.1-3.3c-6.6-8.5-5.1-19.7,3.5-26.3c1.7-1.3,5.2-3.6,10.6-3.7L144.4,89.3z"/>
				</g>
			</g>
			<g>
				<g>
					<path fill="#FFFFFF" d="M180.6,86.3c1,2.8,2.2,5.9,5.7,7.2c1.8,0.7,4.4,0.6,6.3-0.1s3.9-2.3,4.9-4c1.9-3.3,0.7-6.4-0.3-9.2
						l-7.6-20.7l3.8-1.4l7.9,21.8c1,2.8,1.7,5.7,0.8,8.9c-1,3.5-3.9,6.6-8.2,8.2c-4.3,1.6-8.5,1.1-11.6-1c-2.8-1.9-4.1-4.5-5.1-7.3
						L169.3,67l3.8-1.4L180.6,86.3z"/>
				</g>
			</g>
			<g>
				<g>
					<path fill="#FFFFFF" d="M233.4,51.1c2.4-0.2,6-0.2,8.9,1.4c2.2,1.3,4.2,3.9,4.5,7.7c0.4,5.5-3,9.8-8.4,10.5L250.8,86l-4.8,0.3
						l-12-15l-1,0.1l1.1,15.7l-4,0.3l-2.4-35.9L233.4,51.1z M232.7,67.8l2.5-0.2c5-0.3,7.8-2.9,7.5-7.1c-0.1-2-0.9-3.9-3.2-5.1
						c-1.7-0.8-3.5-0.8-5.2-0.7l-2.4,0.2L232.7,67.8z"/>
				</g>
			</g>
			<g>
				<g>
					<path fill="#FFFFFF" d="M285.5,53.6c2.4,0.5,5.9,1.3,8.2,3.7c1.8,1.8,3.1,4.8,2.3,8.6c-1.1,5.4-5.4,8.7-10.8,8l8.1,18l-4.8-0.9
						l-7.7-17.6l-1-0.2l-3.1,15.5l-3.9-0.8l7-35.3L285.5,53.6z M280.5,69.6l2.5,0.5c4.9,1,8.2-0.8,9.1-4.9c0.4-2,0.2-4-1.8-5.7
						c-1.4-1.2-3.2-1.7-4.9-2L283,57L280.5,69.6z"/>
				</g>
			</g>
			<g>
				<g>
					<path fill="#FFFFFF" d="M344.9,78.5l-13.2-6.4l-4.7,9.6l12.8,6.2l-1.7,3.4l-12.8-6.2l-6.1,12.6l13.2,6.4l-1.7,3.4L314,99.3
						L329.7,67l16.8,8.2L344.9,78.5z"/>
				</g>
			</g>
			<g>
				<g>
					<path fill="#FFFFFF" d="M350,119.7l25.6-27.4l0.4,40.7l19.1-20.4l2.9,2.7l-25.7,27.5l-0.4-40.7l-19,20.3L350,119.7z"/>
				</g>
			</g>
			<g>
				<g>
					<path fill="#FFFFFF" d="M425.7,172.4c0.5-1.5,0.8-3.7,0.7-5.7c-0.1-2.1-0.7-4.3-1.7-6.1c-3.9-7.3-12.7-9.6-20.1-5.7
						c-8.6,4.6-9.2,13.9-6.1,19.7c1.1,2.1,2.9,3.9,4.6,5.1c1.9,1.3,3.8,2,4.6,2.2l-4.4,2.3c-4.4-2.2-6.9-5.5-8.2-7.9
						c-5-9.4-1.7-20.2,7.5-25.2c9.5-5.1,20.3-1.8,25.4,7.8c1,1.9,2.7,5.7,1.9,11.1L425.7,172.4z"/>
				</g>
			</g>
			<g>
				<g>
					<path fill="#FFFFFF" d="M443.5,219l-3.1-14.4l-10.4,2.3l3,13.9l-3.7,0.8l-3-13.9l-13.7,3l3.1,14.4l-3.7,0.8l-3.9-18.3l35.2-7.6
						l3.9,18.3L443.5,219z"/>
				</g>
			</g>
		</g>
		<g>
			<g>
				<polygon fill="#FFFFFF" points="120.6,148.6 113.6,140.4 110.5,143 102.5,133.6 99.8,136.4 90.4,125.2 93.2,122.8 100,131 
					102.7,128.2 110.9,137.8 114,135.2 123.4,146.3 				"/>
			</g>
		</g>
	</g>
	<g>
		<g>
			<path fill="#82A245" d="M45.2,255.9v-10.6h2.1l5.7,6.8v-6.8h2.4v10.6h-2.1l-5.7-6.9v6.9H45.2z"/>
		</g>
		<g>
			<path fill="#82A245" d="M70.4,246.6c1,1,1.6,2.4,1.6,4c0,1.4-0.5,2.9-1.6,4c-1,1-2.3,1.6-4.1,1.6c-2,0-3.3-0.8-4.1-1.6
				c-1-1-1.6-2.4-1.6-3.9c0-1.5,0.7-3.1,1.6-4c0.7-0.7,2-1.6,4.1-1.6C67.9,245.1,69.3,245.6,70.4,246.6z M63.9,248.2
				c-0.5,0.4-0.9,1.2-0.9,2.4c0,1,0.3,1.7,1,2.4c0.7,0.7,1.4,0.9,2.3,0.9c1.1,0,1.8-0.4,2.3-0.9c0.4-0.4,0.9-1.1,0.9-2.4
				c0-1.1-0.4-1.9-0.9-2.4c-0.5-0.5-1.4-0.9-2.3-0.9C65.3,247.3,64.5,247.7,63.9,248.2z"/>
		</g>
		<g>
			<path fill="#82A245" d="M78.1,253.3c0.8,0,1.4,0.6,1.4,1.4c0,0.8-0.6,1.4-1.4,1.4s-1.4-0.6-1.4-1.4
				C76.6,253.9,77.3,253.3,78.1,253.3z"/>
		</g>
		<g>
			<path fill="#82A245" d="M91.9,255.9h-8.1l3.2-3.5c0.6-0.6,1.4-1.6,1.7-2.2c0.2-0.4,0.6-1.1,0.6-1.8c0-0.4-0.2-0.8-0.4-1
				c-0.2-0.2-0.6-0.3-1-0.3c-0.5,0-0.8,0.2-1,0.4c-0.3,0.3-0.4,0.9-0.4,1.3h-2.4c0.1-0.9,0.4-2,1.1-2.6c0.5-0.5,1.4-1.1,2.9-1.1
				c1.5,0,2.4,0.6,2.7,1c0.6,0.6,1,1.4,1,2.5c0,0.9-0.3,1.6-0.8,2.3c-0.5,0.6-1,1.2-1.7,1.8l-1.1,1.1h3.6V255.9z"/>
		</g>
	</g>
	<g>
		<g>
			<polyline points="120.1,301.3 117.7,303.7 109.8,311.3 115,376.3 149.6,414.4 284.1,401.7 392.5,362.8 420.1,341.4 389.2,311.5 
				378.5,301.3 284.1,325.2 168.8,321.5 			"/>
		</g>
	</g>
	<g>
		<g>
			<path fill="#82A245" d="M250.4,477c-125.2,0-227-101.8-227-227s101.8-227,227-227s227,101.8,227,227S375.6,477,250.4,477z
				 M250.4,26.1C127,26.1,26.6,126.6,26.6,250S127,473.9,250.4,473.9S474.3,373.4,474.3,250S373.8,26.1,250.4,26.1z"/>
		</g>
	</g>
	<g>
		<g>
			<path fill="#FFFFFF" d="M116.7,400.1V378l16.5,17.3v-16.4h2.4V401l-16.5-17.3v16.4H116.7z"/>
			<path fill="#FFFFFF" d="M136.4,403l-16.5-17.3v15.2h-3.9V376l16.5,17.3v-15.2h3.9V403z M117.5,399.3h0.8v-17.5l16.5,17.3v-19.4
				H134v17.6L117.5,380V399.3z"/>
		</g>
		<g>
			<path fill="#FFFFFF" d="M146.3,389.5c0-6.3,4.9-11,11-11c6.1,0,11,4.6,11,11c0,6.3-4.9,11-11,11
				C151.1,400.4,146.3,395.8,146.3,389.5z M148.7,389.5c0,4.9,3.8,8.7,8.6,8.7c4.8,0,8.6-3.9,8.6-8.7s-3.8-8.7-8.6-8.7
				C152.5,380.8,148.7,384.6,148.7,389.5z"/>
			<path fill="#FFFFFF" d="M157.3,401.2c-6.6,0-11.8-5.2-11.8-11.8c0-6.6,5.2-11.8,11.8-11.8c6.6,0,11.8,5.2,11.8,11.8
				C169.1,396.1,163.9,401.2,157.3,401.2z M157.3,379.3c-5.8,0-10.2,4.4-10.2,10.2s4.4,10.2,10.2,10.2c5.8,0,10.2-4.4,10.2-10.2
				S163.1,379.3,157.3,379.3z M157.3,399c-5.2,0-9.4-4.3-9.4-9.5s4.2-9.5,9.4-9.5c5.2,0,9.4,4.3,9.4,9.5S162.5,399,157.3,399z
				 M157.3,381.5c-4.3,0-7.8,3.6-7.8,7.9s3.5,7.9,7.8,7.9c4.3,0,7.8-3.6,7.8-7.9S161.6,381.5,157.3,381.5z"/>
		</g>
		<g>
			<path fill="#FFFFFF" d="M182.4,378.9c1.4,0,3.6,0.1,5.1,1.2c1.2,0.8,2.3,2.4,2.3,4.7c0,3.2-2.1,5.6-5.3,5.8l6.7,9.5h-2.9
				l-6.4-9.3h-0.6v9.3H179v-21.2H182.4z M181.3,388.7h1.5c2.9,0,4.7-1.4,4.7-3.9c0-1.2-0.4-2.4-1.7-3.1c-1-0.5-2-0.6-3-0.6h-1.4
				V388.7z"/>
			<path fill="#FFFFFF" d="M192.8,400.9h-4.8l-5.8-8.4v8.4h-3.9v-22.8h4.2c1.7,0,3.9,0.1,5.6,1.3c1.7,1.1,2.7,3.1,2.7,5.4
				c0,3.2-1.9,5.7-4.7,6.4L192.8,400.9z M188.8,399.3h0.9l-6.7-9.4l1.4-0.1c2.7-0.2,4.6-2.2,4.6-5.1c0-1.7-0.7-3.2-2-4
				c-1.4-0.9-3.2-1-4.7-1h-2.6v19.6h0.8V390h1.8L188.8,399.3z M182.8,389.5h-2.3v-9.2h2.2c1.1,0,2.3,0.1,3.4,0.7
				c1.4,0.8,2.1,2.1,2.1,3.8C188.3,387.7,186.2,389.5,182.8,389.5z M182.1,387.9h0.7c1.4,0,3.9-0.4,3.9-3.1c0-1.2-0.4-1.9-1.3-2.4
				c-0.8-0.5-1.8-0.5-2.7-0.5h-0.6V387.9z"/>
		</g>
		<g>
			<path fill="#FFFFFF" d="M206.5,381.1v19h-2.3v-19H199v-2.2h12.6v2.2H206.5z"/>
			<path fill="#FFFFFF" d="M207.3,400.9h-3.9v-19h-5.1v-3.8h14.2v3.8h-5.1V400.9z M204.9,399.3h0.8v-19h5.1v-0.6h-11.1v0.6h5.1
				V399.3z"/>
		</g>
		<g>
			<path fill="#FFFFFF" d="M223.5,387.5h10.9v-8.6h2.4v21.2h-2.4v-10.4h-10.9v10.4h-2.4v-21.2h2.4V387.5z"/>
			<path fill="#FFFFFF" d="M237.5,400.9h-3.9v-10.4h-9.3v10.4h-3.9v-22.8h3.9v8.6h9.3v-8.6h3.9V400.9z M235.1,399.3h0.8v-19.6h-0.8
				v8.6h-12.4v-8.6h-0.8v19.6h0.8v-10.4h12.4V399.3z"/>
		</g>
		<g>
			<path fill="#FFFFFF" d="M271.7,383.1c-0.3-0.6-0.8-1.2-1.2-1.6c-0.4-0.3-1.2-0.7-2.4-0.7c-2.1,0-3.6,1.3-3.6,3.3
				c0,0.8,0.2,1.3,0.8,1.8c0.6,0.6,1.4,1,2.2,1.3l2,0.9c1.2,0.5,2.4,1.1,3.3,2c1.1,1.1,1.5,2.3,1.5,3.8c0,3.9-2.9,6.5-6.7,6.5
				c-1.4,0-3.1-0.3-4.6-1.7c-1-1-1.7-2.5-2-3.7l2.3-0.6c0.2,1.1,0.7,2.1,1.3,2.7c0.9,0.9,2,1.2,3,1.2c2.9,0,4.3-2.1,4.3-4.2
				c0-1-0.3-1.8-1-2.5c-0.6-0.6-1.4-1-2.5-1.5l-1.9-0.9c-0.8-0.4-1.9-0.8-2.8-1.7c-0.9-0.9-1.5-1.9-1.5-3.5c0-3.3,2.5-5.5,5.9-5.5
				c1.3,0,2.4,0.3,3.4,1c0.9,0.6,1.6,1.4,2.1,2.4L271.7,383.1z"/>
			<path fill="#FFFFFF" d="M267.7,401.2c-2.1,0-3.8-0.6-5.2-1.9c-1-1-1.8-2.5-2.2-4.1l-0.2-0.7l3.9-1.1l0.1,0.9
				c0.1,0.9,0.5,1.7,1.1,2.3c0.6,0.6,1.4,0.9,2.5,0.9c2.6,0,3.5-1.8,3.5-3.4c0-0.8-0.2-1.4-0.8-1.9c-0.5-0.5-1.3-0.8-2.3-1.3l-2.1-1
				c-0.8-0.4-1.9-0.9-2.9-1.8c-1.2-1.1-1.7-2.4-1.7-4c0-3.6,2.8-6.3,6.7-6.3c1.5,0,2.7,0.3,3.8,1.1c0.9,0.6,1.8,1.6,2.3,2.6l0.3,0.6
				l-3.2,2.1l-0.4-0.8c-0.3-0.5-0.7-1-1-1.3c-0.3-0.2-0.9-0.6-1.9-0.6c-1.7,0-2.8,1-2.8,2.5c0,0.6,0.1,0.9,0.5,1.3
				c0.5,0.5,1.2,0.9,2,1.2l2,0.9c1.2,0.5,2.5,1.1,3.5,2.2c1.2,1.2,1.8,2.6,1.8,4.4C275.2,398.2,272,401.2,267.7,401.2z M262.1,395.5
				c0.3,1.1,0.9,2,1.5,2.6c1,1,2.4,1.5,4.1,1.5c3.5,0,5.9-2.4,5.9-5.7c0-1.4-0.4-2.4-1.3-3.3c-0.8-0.8-1.8-1.3-3-1.8l-2-0.9
				c-0.9-0.4-1.7-0.8-2.5-1.5c-0.7-0.7-1-1.4-1-2.4c0-2.4,1.8-4.1,4.4-4.1c1.4,0,2.3,0.5,2.9,0.9c0.3,0.3,0.7,0.7,1,1.1l0.6-0.4
				c-0.4-0.6-0.9-1.1-1.4-1.4c-0.9-0.6-1.7-0.8-3-0.8c-3.1,0-5.1,1.9-5.1,4.7c0,1.4,0.5,2.2,1.2,2.9c0.8,0.8,1.7,1.2,2.4,1.5l2.1,1
				c1.1,0.5,2,0.9,2.8,1.6c0.9,0.8,1.3,1.8,1.3,3.1c0,2.4-1.6,5-5,5c-1.5,0-2.7-0.5-3.6-1.4c-0.6-0.6-1-1.4-1.3-2.3L262.1,395.5z"/>
		</g>
		<g>
			<path fill="#FFFFFF" d="M287.4,387.5h10.9v-8.6h2.4v21.2h-2.4v-10.4h-10.9v10.4H285v-21.2h2.4V387.5z"/>
			<path fill="#FFFFFF" d="M301.4,400.9h-3.9v-10.4h-9.3v10.4h-3.9v-22.8h3.9v8.6h9.3v-8.6h3.9V400.9z M299.1,399.3h0.8v-19.6h-0.8
				v8.6h-12.4v-8.6h-0.8v19.6h0.8v-10.4h12.4V399.3z"/>
		</g>
		<g>
			<path fill="#FFFFFF" d="M311.3,389.5c0-6.3,4.9-11,11-11s11,4.6,11,11c0,6.3-4.9,11-11,11C316.2,400.4,311.3,395.8,311.3,389.5z
				 M313.7,389.5c0,4.9,3.8,8.7,8.6,8.7s8.6-3.9,8.6-8.7s-3.8-8.7-8.6-8.7S313.7,384.6,313.7,389.5z"/>
			<path fill="#FFFFFF" d="M322.3,401.2c-6.6,0-11.8-5.2-11.8-11.8c0-6.6,5.2-11.8,11.8-11.8c6.6,0,11.8,5.2,11.8,11.8
				C334.1,396.1,328.9,401.2,322.3,401.2z M322.3,379.3c-5.8,0-10.2,4.4-10.2,10.2s4.4,10.2,10.2,10.2c5.8,0,10.2-4.4,10.2-10.2
				S328.1,379.3,322.3,379.3z M322.3,399c-5.2,0-9.4-4.3-9.4-9.5s4.2-9.5,9.4-9.5c5.2,0,9.4,4.3,9.4,9.5S327.5,399,322.3,399z
				 M322.3,381.5c-4.3,0-7.8,3.6-7.8,7.9s3.5,7.9,7.8,7.9c4.3,0,7.8-3.6,7.8-7.9S326.6,381.5,322.3,381.5z"/>
		</g>
		<g>
			<path fill="#FFFFFF" d="M347.4,378.9c1.4,0,3.6,0.1,5.1,1.2c1.2,0.8,2.3,2.4,2.3,4.7c0,3.2-2.1,5.6-5.3,5.8l6.7,9.5h-2.9
				l-6.4-9.3h-0.6v9.3H344v-21.2H347.4z M346.3,388.7h1.5c2.9,0,4.7-1.4,4.7-3.9c0-1.2-0.3-2.4-1.7-3.1c-1-0.5-2-0.6-3-0.6h-1.4
				V388.7z"/>
			<path fill="#FFFFFF" d="M357.8,400.9H353l-5.8-8.4v8.4h-3.9v-22.8h4.2c1.7,0,3.9,0.1,5.6,1.3c1.7,1.1,2.7,3.1,2.7,5.4
				c0,3.2-1.9,5.7-4.7,6.4L357.8,400.9z M353.8,399.3h0.9l-6.7-9.4l1.4-0.1c2.8-0.2,4.6-2.2,4.6-5.1c0-1.7-0.7-3.2-2-4
				c-1.4-0.9-3.2-1-4.7-1h-2.6v19.6h0.8V390h1.8L353.8,399.3z M347.8,389.5h-2.3v-9.2h2.2c1.1,0,2.3,0.1,3.4,0.7
				c1.4,0.8,2.1,2.1,2.1,3.8C353.3,387.7,351.2,389.5,347.8,389.5z M347.1,387.9h0.7c1.4,0,3.9-0.4,3.9-3.1c0-1.2-0.4-1.9-1.3-2.4
				c-0.8-0.5-1.8-0.5-2.7-0.5h-0.6V387.9z"/>
		</g>
		<g>
			<path fill="#FFFFFF" d="M377.3,381.1h-8.6v6.3h8.4v2.2h-8.4v8.2h8.6v2.2h-11v-21.2h11V381.1z"/>
			<path fill="#FFFFFF" d="M378.1,400.9h-12.6v-22.8h12.6v3.8h-8.6v4.7h8.4v3.8h-8.4v6.6h8.6V400.9z M367.1,399.3h9.4v-0.6h-8.6
				v-9.8h8.4v-0.6h-8.4v-7.9h8.6v-0.6h-9.4V399.3z"/>
		</g>
	</g>
	<g>
		<g>
			<path fill="#FFFFFF" d="M187.2,423.6c0-4.4,3.4-7.7,7.7-7.7s7.7,3.2,7.7,7.7c0,4.4-3.4,7.7-7.7,7.7S187.2,428,187.2,423.6z
				 M188.8,423.6c0,3.4,2.7,6.1,6,6.1s6-2.7,6-6.1c0-3.4-2.7-6.1-6-6.1S188.8,420.2,188.8,423.6z"/>
			<path fill="#FFFFFF" d="M194.9,432.1c-4.8,0-8.5-3.7-8.5-8.5s3.7-8.5,8.5-8.5s8.5,3.7,8.5,8.5S199.6,432.1,194.9,432.1z
				 M196.8,417c2.8,0.8,4.9,3.5,4.9,6.6c0,3.1-2.1,5.8-4.9,6.6c3-0.8,5-3.4,5-6.6C201.8,420.3,199.7,417.8,196.8,417z M193,417
				c-3,0.8-5,3.4-5,6.6c0,3.3,2.1,5.9,5,6.6c-2.8-0.8-4.9-3.5-4.9-6.6C188,420.5,190.1,417.8,193,417z M194.9,418.3
				c-2.9,0-5.2,2.4-5.2,5.3c0,2.9,2.3,5.3,5.2,5.3s5.2-2.4,5.2-5.3C200.1,420.7,197.8,418.3,194.9,418.3z"/>
		</g>
		<g>
			<path fill="#FFFFFF" d="M217.8,426.8h-6.3l-1.8,4.2h-1.8l6.8-15.5l6.6,15.5h-1.8L217.8,426.8z M217.1,425.3l-2.5-5.9l-2.5,5.9
				H217.1z"/>
			<path fill="#FFFFFF" d="M222.5,431.8H219l-1.7-4.2H212l-1.8,4.2h-3.6l8.1-18.3L222.5,431.8z M220,430.2L220,430.2l-3.3-7.9
				l1.6,3.7h0L220,430.2z M209.1,430.2L209.1,430.2l1.8-4.2h0l0.3-0.6L209.1,430.2z M213.3,424.5h2.6l-1.3-3.1L213.3,424.5z"/>
		</g>
		<g>
			<path fill="#FFFFFF" d="M229.5,422.2h7.6v-6h1.6V431h-1.6v-7.2h-7.6v7.2h-1.6v-14.8h1.6V422.2z"/>
			<path fill="#FFFFFF" d="M239.6,431.8h-3.2v-7.2h-6v7.2h-3.2v-16.4h3.2v6h6v-6h3.2V431.8z M237.9,430.2L237.9,430.2V417V430.2z
				 M228.7,430.2L228.7,430.2V417V430.2z"/>
		</g>
		<g>
			<path fill="#FFFFFF" d="M248.7,425.3c0,1.2,0,2.6,1.2,3.6c0.6,0.5,1.6,0.8,2.4,0.8c0.8,0,1.8-0.3,2.4-0.8c1.2-1,1.2-2.4,1.2-3.6
				v-9.1h1.6v9.5c0,1.2-0.1,2.4-0.9,3.6c-0.9,1.2-2.4,2-4.3,2s-3.4-0.8-4.3-2c-0.8-1.1-0.9-2.3-0.9-3.6v-9.5h1.6V425.3z"/>
			<path fill="#FFFFFF" d="M252.3,432.1c-2.1,0-3.9-0.8-5-2.3c-1-1.3-1.1-2.7-1.1-4v-10.3h3.2v9.9c0,1.2,0,2.2,0.9,3
				c0.4,0.4,1.3,0.7,1.9,0.7s1.5-0.3,1.9-0.7c0.9-0.8,0.9-1.8,0.9-3v-9.9h3.2v10.3c0,1.3-0.1,2.7-1.1,4
				C256.2,431.2,254.4,432.1,252.3,432.1z M256.7,417v8.3c0,1.3,0,3-1.5,4.2c-0.5,0.4-1.2,0.7-1.9,0.9c1.1-0.2,2-0.8,2.6-1.6
				c0.6-0.9,0.8-1.9,0.8-3.1L256.7,417z M247.8,417v8.7c0,1.2,0.1,2.2,0.8,3.1c0.6,0.8,1.5,1.4,2.6,1.6c-0.7-0.2-1.4-0.5-1.9-0.9
				c-1.5-1.2-1.5-2.9-1.5-4.2L247.8,417z"/>
		</g>
		<g>
			<path fill="#FFFFFF" d="M266.3,428.8l1.5,0.5l-2.2,5l-1-0.4L266.3,428.8z"/>
			<polygon fill="#FFFFFF" points="265.9,435.4 263.5,434.4 265.8,427.8 268.8,428.9 			"/>
		</g>
		<g>
			<path fill="#FFFFFF" d="M287.6,422.2h7.6v-6h1.6V431h-1.6v-7.2h-7.6v7.2H286v-14.8h1.6V422.2z"/>
			<path fill="#FFFFFF" d="M297.7,431.8h-3.2v-7.2h-6v7.2h-3.2v-16.4h3.2v6h6v-6h3.2V431.8z M296,430.2L296,430.2V417V430.2z
				 M286.8,430.2L286.8,430.2V417V430.2z"/>
		</g>
		<g>
			<path fill="#FFFFFF" d="M306.8,416.2V431h-1.6v-14.8H306.8z"/>
			<path fill="#FFFFFF" d="M307.6,431.8h-3.2v-16.4h3.2V431.8z M305.9,430.2L305.9,430.2V417V430.2z"/>
		</g>
	</g>
	<g>
		<g>
			<g>
				<path fill="#8E8D8D" d="M334.1,167.2c-0.1,0-0.2,0-0.2-0.1l-1.6-2.1c-6.9-8.6-18.5-11.5-23.2-12.3c-0.8-0.1-1.4-0.9-1.3-1.8
					v-0.4c0.1-0.8,0.7-1.4,1.6-1.4c0.1,0,0.2,0,0.2,0c5.1,0.9,14.8,3.4,22.1,10.2l1.2,1.1l0.7-1.4c2.7-5.3,7.9-12.2,17.3-14.8
					c0.1,0,0.4-0.1,0.5-0.1c0.8,0,1.5,0.6,1.6,1.3v0.4c0.1,0.8-0.4,1.5-1.2,1.8c-12.6,3.8-16.5,16.5-16.6,16.9l-0.7,2.6
					C334.4,167.2,334.2,167.2,334.1,167.2z"/>
			</g>
		</g>
		<g>
			<g>
				<path fill="#8E8D8D" d="M360.4,185.7c-0.2,0-0.4,0-0.5-0.1l-0.6-0.5c-3.5-2.6-7.2-3.9-10.9-3.9c-3.5,0-6.4,1.3-8.1,2.4
					c-0.2,0.1-0.5,0.2-0.8,0.2c-0.5,0-0.8-0.2-1.2-0.5l-0.2-0.2c-0.4-0.4-0.5-0.8-0.5-1.3c0.1-0.5,0.4-0.9,0.7-1.2
					c1.8-1.1,5.3-2.8,10-2.8c3.8,0,7.5,1.1,11.1,3.3l0.7,0.5l0.7-0.6c2.8-2.4,10-7.6,17.5-7.6c0.5,0,0.9,0,1.5,0.1
					c0.5,0,0.9,0.4,1.2,0.7c0.2,0.4,0.4,0.9,0.2,1.4l-0.1,0.4c-0.2,0.7-0.8,1.1-1.5,1.1h-0.1c-0.4,0-0.7,0-1.1,0
					c-6.7,0-13.9,5.4-16.8,8.2l-0.6,0.6C360.9,185.5,360.6,185.7,360.4,185.7z"/>
			</g>
		</g>
	</g>
	<g>
		<g>
			<line fill="#010101" x1="99.4" y1="302.9" x2="402.2" y2="302.9"/>
		</g>
		<g>
			<rect x="99.4" y="301.3" fill="#82A245" width="302.8" height="3.2"/>
		</g>
	</g>
	<g>
		<g>
			<g>
				<path fill="#70CEE6" d="M370.9,293.1c-1,11.5-10.7,20.7-22.5,20.7c-11.8,0-21.5-9.1-22.5-20.7h-1.1h-2.1h-1.1
					c-1,11.5-10.7,20.7-22.5,20.7c-11.8,0-21.5-9.1-22.5-20.7h-1.1h-2.1h-1.1c-1,11.5-10.7,20.7-22.5,20.7
					c-11.8,0-21.5-9.1-22.5-20.7h-1.1h-2.1h-1.1c-1,11.5-10.7,20.7-22.5,20.7c-11.8,0-21.5-9.1-22.5-20.7h-1.1h-2.1h-1.1
					c-1,11.5-10.7,20.7-22.5,20.7c-11.8,0-21.5-9.1-22.5-20.7h-3.2c1,13.3,12.1,23.8,25.7,23.8c11.6,0,21.4-7.7,24.6-18.3
					c3.2,10.6,13,18.3,24.6,18.3c11.6,0,21.4-7.7,24.6-18.3c3.2,10.6,13,18.3,24.6,18.3c11.6,0,21.4-7.7,24.6-18.3
					c3.2,10.6,13,18.3,24.6,18.3c11.6,0,21.4-7.7,24.6-18.3c3.2,10.6,13,18.3,24.6,18.3c13.5,0,24.7-10.5,25.7-23.8H370.9z"/>
			</g>
		</g>
		<g>
			<g>
				<path fill="#70CEE6" d="M297.6,350.2c-11.8,0-21.5-9.1-22.5-20.7h-1.1H272h-1.1c-1,11.5-10.7,20.7-22.5,20.7
					c-11.8,0-21.5-9.1-22.5-20.7h-1.1h-2.1h-1.1c-1,11.5-10.7,20.7-22.5,20.7c-11.8,0-21.5-9.1-22.5-20.7h-3.2
					c1,13.3,12.1,23.8,25.7,23.8c11.6,0,21.4-7.7,24.6-18.3c3.2,10.6,13,18.3,24.6,18.3c11.6,0,21.4-7.7,24.6-18.3
					c3.2,10.6,13,18.3,24.6,18.3c13.5,0,24.7-10.5,25.7-23.8h-3.2C319.1,341.1,309.4,350.2,297.6,350.2z"/>
			</g>
		</g>
	</g>
	<g id="Layer_3_1_">
		<g>
			<g>
				<circle fill="#010101" cx="232.2" cy="166.9" r="10.2"/>
			</g>
			<g>
				<path fill="#8E8D8D" d="M232.2,178.6c-6.5,0-11.8-5.3-11.8-11.8c0-6.5,5.3-11.8,11.8-11.8s11.8,5.3,11.8,11.8
					C244,173.3,238.7,178.6,232.2,178.6z M232.2,158.3c-4.7,0-8.6,3.9-8.6,8.6s3.9,8.6,8.6,8.6c4.7,0,8.6-3.9,8.6-8.6
					S236.9,158.3,232.2,158.3z"/>
			</g>
		</g>
		<g>
			<g>
				<path fill="#010101" d="M284.6,171.5c0-50.4-7.6-72.3-17-72.3c-9.4,0-17,21.9-17,72.3c0,2.6,0,5.2,0.1,7.7h-6.2v0h-0.2h-0.5
					l-23.7,0c-7.7,0-12.5,6.3-12.5,14.1v33.3c0,6.5,8.5,6.5,8.5,0v-32.4h2.7l0,82.5c0,3.3,2.7,6.1,6.1,6.1c3.4,0,6.1-2.7,6.1-6.1
					v-46.5h2.7l0,46.5c0,3.3,2.7,6.1,6.1,6.1c3.4,0,6.1-2.7,6.1-6.1l0-82.5v-4.9h4.8c0,0.7,0,1.4,0,2.1c0,50.4,7.6,91.3,17,91.3
					c9.4,0,17-40.9,17-91.3c0-3.4,0-6.7-0.1-10C284.6,178.2,284.6,174.9,284.6,171.5z"/>
			</g>
			<g>
				<path fill="#8E8D8D" d="M267.6,284.4c-12.1,0-18.6-47.9-18.6-92.9c0-0.2,0-0.4,0-0.6h-1.6l0,85.8c0,4.2-3.4,7.7-7.7,7.7
					c-3.6,0-6.6-2.4-7.4-5.7c-0.9,3.3-3.9,5.7-7.4,5.7c-4.2,0-7.7-3.4-7.7-7.7l0-47.5c-2.2,5.7-11.3,4.7-11.3-2.7v-33.3
					c0-9.1,5.9-15.6,14.1-15.6l22.9,0l6.1,0c0-2-0.1-4.1-0.1-6.2c0-47,6.8-73.9,18.6-73.9c11.8,0,18.6,26.9,18.6,73.9
					c0,3.4,0,6.7-0.1,10c0.1,3.2,0.1,6.6,0.1,10C286.2,236.5,279.7,284.4,267.6,284.4z M244.3,187.8h8l0,2.6c0,0.4,0,0.7,0,1.1
					c0,57.8,9.1,89.7,15.4,89.7c6.3,0,15.4-31.9,15.4-89.7c0-3.4,0-6.7-0.1-9.9c0.1-3.3,0.1-6.6,0.1-10c0-52.2-8.3-70.7-15.4-70.7
					c-7.1,0-15.4,18.5-15.4,70.7c0,2.3,0,4.7,0.1,7l0,2.4h-32.2c-6.4,0-10.9,5.1-10.9,12.5v33.3c0,2.2,1.3,3.3,2.7,3.3
					s2.7-1,2.7-3.3v-34h5.9l0,84.1c0,2.5,2,4.5,4.5,4.5c2.5,0,4.5-2,4.5-4.5v-48.1h5.9l0,48.1c0,2.5,2,4.5,4.5,4.5
					c2.5,0,4.5-2,4.5-4.5L244.3,187.8z"/>
			</g>
		</g>
		<g>
			<g>
				<path fill="#010101" d="M286.4,189.3h1.2c7.6,0,7.6-10,0-10h-1.2V189.3z"/>
			</g>
			<g>
				<path fill="#8E8D8D" d="M287.5,190.9h-2.7v-13.2h2.7c4.8,0,7.3,3.3,7.3,6.6C294.8,187.6,292.3,190.9,287.5,190.9z M288,180.9
					v6.8c2.5-0.2,3.7-1.8,3.7-3.4C291.6,182.7,290.5,181.1,288,180.9z"/>
			</g>
		</g>
	</g>
	<g>
		<g>
			<g>
				<polygon fill="#FFFFFF" points="269.9,176.2 266.4,175.4 268.9,164.8 264.9,163.9 267.8,151.9 263.8,151.4 267.4,137.1 
					270.9,138 268.4,148.3 272.2,148.8 269.3,161.2 273.2,162.1 				"/>
			</g>
		</g>
	</g>
</g>
</svg>
